<svg width="25" height="24" viewBox="0 0 25 24" fill="none" xmlns="http://www.w3.org/2000/svg">
<path d="M0.666748 23.9999L2.35374 17.837C1.31275 16.033 0.765748 13.988 0.766748 11.891C0.769748 5.33499 6.10474 0 12.6597 0C15.8407 0.000999998 18.8267 1.24 21.0727 3.48799C23.3177 5.73599 24.5537 8.72398 24.5527 11.902C24.5497 18.459 19.2147 23.7939 12.6597 23.7939C10.6697 23.7929 8.70873 23.2939 6.97173 22.346L0.666748 23.9999ZM7.26373 20.193C8.93973 21.188 10.5397 21.784 12.6557 21.785C18.1037 21.785 22.5417 17.351 22.5447 11.9C22.5467 6.43799 18.1297 2.01 12.6637 2.008C7.21173 2.008 2.77674 6.44199 2.77474 11.892C2.77374 14.117 3.42574 15.783 4.52074 17.526L3.52174 21.174L7.26373 20.193ZM18.6507 14.729C18.5767 14.605 18.3787 14.531 18.0807 14.382C17.7837 14.233 16.3227 13.514 16.0497 13.415C15.7777 13.316 15.5797 13.266 15.3807 13.564C15.1827 13.861 14.6127 14.531 14.4397 14.729C14.2667 14.927 14.0927 14.952 13.7957 14.803C13.4987 14.654 12.5407 14.341 11.4057 13.328C10.5227 12.54 9.92573 11.567 9.75273 11.269C9.57973 10.972 9.73473 10.811 9.88273 10.663C10.0167 10.53 10.1797 10.316 10.3287 10.142C10.4797 9.96998 10.5287 9.84598 10.6287 9.64698C10.7277 9.44898 10.6787 9.27498 10.6037 9.12598C10.5287 8.97798 9.93473 7.51498 9.68773 6.91998C9.44573 6.34099 9.20073 6.41899 9.01873 6.40999L8.44873 6.39999C8.25073 6.39999 7.92873 6.47399 7.65673 6.77199C7.38473 7.06998 6.61673 7.78798 6.61673 9.25098C6.61673 10.714 7.68173 12.127 7.82973 12.325C7.97873 12.523 9.92473 15.525 12.9057 16.812C13.6147 17.118 14.1687 17.301 14.5997 17.438C15.3117 17.664 15.9597 17.632 16.4717 17.556C17.0427 17.471 18.2297 16.837 18.4777 16.143C18.7257 15.448 18.7257 14.853 18.6507 14.729Z" fill="black"/>
</svg>
