<svg width="25" height="24" viewBox="0 0 25 24" fill="none" xmlns="http://www.w3.org/2000/svg">
<path d="M22.8902 0H2.43862C1.45894 0 0.666748 0.773438 0.666748 1.72969V22.2656C0.666748 23.2219 1.45894 24 2.43862 24H22.8902C23.8699 24 24.6667 23.2219 24.6667 22.2703V1.72969C24.6667 0.773438 23.8699 0 22.8902 0ZM7.78706 20.4516H4.22456V8.99531H7.78706V20.4516ZM6.00581 7.43438C4.86206 7.43438 3.93862 6.51094 3.93862 5.37187C3.93862 4.23281 4.86206 3.30937 6.00581 3.30937C7.14487 3.30937 8.06831 4.23281 8.06831 5.37187C8.06831 6.50625 7.14487 7.43438 6.00581 7.43438ZM21.1183 20.4516H17.5605V14.8828C17.5605 13.5562 17.5371 11.8453 15.7089 11.8453C13.8574 11.8453 13.5761 13.2937 13.5761 14.7891V20.4516H10.023V8.99531H13.4355V10.5609H13.4824C13.9558 9.66094 15.1183 8.70938 16.848 8.70938C20.4527 8.70938 21.1183 11.0813 21.1183 14.1656V20.4516Z" fill="black"/>
</svg>
